<?xml version="1.0" encoding="iso-8859-1"?>
<!-- Uploaded to: SVG Repo, www.svgrepo.com, Generator: SVG Repo Mixer Tools -->
<svg version="1.1" id="Layer_1" xmlns="http://www.w3.org/2000/svg" xmlns:xlink="http://www.w3.org/1999/xlink" 
	 viewBox="0 0 512.001 512.001" xml:space="preserve">
<rect x="222.894" y="387.46" style="fill:#74CBB4;" width="68.206" height="39.983"/>
<g>
	<polygon style="fill:#82DCC7;" points="344.053,427.446 169.947,427.446 140.579,465.775 373.422,465.775 	"/>
	<rect x="9.819" y="46.43" style="fill:#82DCC7;" width="494.356" height="341.032"/>
</g>
<rect x="49.17" y="85.781" style="fill:#A0DBFD;" width="415.66" height="262.336"/>
<path d="M503.18,37.508H8.82c-4.871,0-8.82,3.949-8.82,8.82v55.271c0,4.871,3.949,8.82,8.82,8.82s8.82-3.949,8.82-8.82V55.148
	H494.36v323.393H17.64V132.174c0-4.871-3.949-8.82-8.82-8.82S0,127.303,0,132.174V387.36c0,4.871,3.949,8.82,8.82,8.82h204.257
	v22.344h-44.131c-2.744,0-5.332,1.277-7.002,3.455l-29.368,38.33c-2.041,2.665-2.393,6.257-0.908,9.268
	c1.486,3.01,4.552,4.917,7.91,4.917h232.843c3.356,0,6.423-1.906,7.91-4.917c1.485-3.01,1.134-6.603-0.908-9.268l-29.369-38.33
	c-1.669-2.179-4.257-3.455-7.001-3.455h-44.13V396.18h204.257c4.871,0,8.82-3.949,8.82-8.82V46.328
	C512,41.457,508.051,37.508,503.18,37.508z M354.554,456.853H157.449l15.852-20.69h165.401L354.554,456.853z M281.283,418.524
	h-50.567V396.18h50.567V418.524z"/>
<path d="M357.525,76.859H48.169c-4.871,0-8.82,3.949-8.82,8.82v262.333c0,4.871,3.949,8.82,8.82,8.82H463.83
	c4.871,0,8.82-3.949,8.82-8.82V85.678c0-4.871-3.949-8.82-8.82-8.82h-66.323c-4.871,0-8.82,3.949-8.82,8.82s3.949,8.82,8.82,8.82
	h57.503v244.693H56.989V94.498h300.535c4.871,0,8.82-3.949,8.82-8.82S362.396,76.859,357.525,76.859z"/>
<path d="M112.335,126.294c0-4.871-3.949-8.82-8.82-8.82s-8.82,3.949-8.82,8.82v121.713c0,4.871,3.949,8.82,8.82,8.82
	s8.82-3.949,8.82-8.82V126.294z"/>
<path d="M103.515,269.175c-4.871,0-8.82,3.949-8.82,8.82v28.223c0,4.871,3.949,8.82,8.82,8.82s8.82-3.949,8.82-8.82v-28.223
	C112.335,273.124,108.386,269.175,103.515,269.175z"/>
<path d="M138.794,180.389v125.829c0,4.871,3.949,8.82,8.82,8.82s8.82-3.949,8.82-8.82V180.389c0-4.871-3.949-8.82-8.82-8.82
	S138.794,175.518,138.794,180.389z"/>
<path d="M182.893,223.9v82.318c0,4.871,3.949,8.82,8.82,8.82s8.82-3.949,8.82-8.82V223.9c0-4.871-3.949-8.82-8.82-8.82
	S182.893,219.029,182.893,223.9z"/>
<path d="M226.992,192.149v114.069c0,4.871,3.949,8.82,8.82,8.82s8.82-3.949,8.82-8.82V192.149c0-4.871-3.949-8.82-8.82-8.82
	S226.992,187.278,226.992,192.149z"/>
<path d="M271.09,172.157v134.061c0,4.871,3.949,8.82,8.82,8.82s8.82-3.949,8.82-8.82V172.157c0-4.871-3.949-8.82-8.82-8.82
	S271.09,167.286,271.09,172.157z"/>
<path d="M315.189,233.308v72.91c0,4.871,3.949,8.82,8.82,8.82s8.82-3.949,8.82-8.82v-72.91c0-4.871-3.949-8.82-8.82-8.82
	S315.189,228.437,315.189,233.308z"/>
<path d="M359.288,268.587v37.631c0,4.871,3.949,8.82,8.82,8.82s8.82-3.949,8.82-8.82v-37.631c0-4.871-3.949-8.82-8.82-8.82
	S359.288,263.716,359.288,268.587z"/>
<path d="M421.027,306.218V172.157c0-4.871-3.949-8.82-8.82-8.82s-8.82,3.949-8.82,8.82v134.061c0,4.871,3.949,8.82,8.82,8.82
	S421.027,311.089,421.027,306.218z"/>
</svg>