<?xml version="1.0" encoding="iso-8859-1"?>
<!-- Uploaded to: SVG Repo, www.svgrepo.com, Generator: SVG Repo Mixer Tools -->
<svg version="1.1" id="Layer_1" xmlns="http://www.w3.org/2000/svg" xmlns:xlink="http://www.w3.org/1999/xlink" 
	 viewBox="0 0 512 512" xml:space="preserve">
<polyline style="fill:#FED159;" points="110.301,89.843 502.455,89.843 502.455,9.241 11.612,9.241 11.612,89.843 81.068,89.843 "/>
<rect x="31.984" y="89.842" style="fill:#F8F8F8;" width="450.112" height="297.261"/>
<rect x="31.984" y="89.842" style="fill:#F2F2F2;" width="450.112" height="31.06"/>
<g>
	<polygon style="fill:#FED159;" points="417.623,502.97 348.024,502.97 297.001,419.985 276.781,387.098 346.368,387.098 
		366.587,419.985 	"/>
	<polygon style="fill:#FED159;" points="237.281,387.098 217.061,419.985 166.038,502.97 96.452,502.97 147.463,419.985 
		167.682,387.098 	"/>
</g>
<g>
	<polygon style="fill:#F6C454;" points="167.682,387.098 237.281,387.098 217.061,419.985 147.463,419.985 	"/>
	<polygon style="fill:#F6C454;" points="366.587,419.985 297.001,419.985 276.781,387.098 346.368,387.098 	"/>
</g>
<rect x="85.053" y="236.067" style="fill:#65B4BB;" width="81.803" height="100.402"/>
<rect x="347.211" y="197.65" style="fill:#2CA8FB;" width="81.803" height="138.819"/>
<polyline style="fill:#F64B4A;" points="297.937,179.338 297.937,143.434 216.131,143.434 216.131,336.471 297.937,336.471 
	297.937,207.353 "/>
<path d="M501.42,0H10.577C5.53,0,1.442,4.09,1.442,9.135v80.602c0,5.045,4.089,9.135,9.135,9.135h69.456
	c5.046,0,9.135-4.09,9.135-9.135s-4.089-9.135-9.135-9.135H19.712V18.27h472.572v62.332h-383.02c-5.046,0-9.135,4.09-9.135,9.135
	s4.089,9.135,9.135,9.135h362.655v278.984H40.076V119.549c0-5.045-4.089-9.135-9.135-9.135s-9.135,4.09-9.135,9.135v267.443
	c0,5.045,4.089,9.135,9.135,9.135h119.367L87.631,498.08c-1.732,2.819-1.805,6.354-0.19,9.242c1.614,2.888,4.664,4.677,7.973,4.677
	h69.589c3.173,0,6.119-1.647,7.782-4.351l68.562-111.522h29.294l68.574,111.522c1.661,2.703,4.608,4.351,7.782,4.351h69.59
	c3.309,0,6.359-1.789,7.974-4.677c1.614-2.888,1.541-6.424-0.192-9.242l-62.69-101.952h119.379c5.046,0,9.135-4.09,9.135-9.135
	V98.873h11.23c5.046,0,9.135-4.09,9.135-9.135V9.135C510.555,4.09,506.466,0,501.42,0z M159.894,493.73h-48.142l60.004-97.602
	h48.142L159.894,493.73z M400.242,493.73h-48.142l-60.014-97.602h48.141L400.242,493.73z"/>
<path d="M165.825,345.499c5.046,0,9.135-4.09,9.135-9.135v-100.4c0-5.045-4.089-9.135-9.135-9.135H84.017
	c-5.046,0-9.135,4.09-9.135,9.135v100.4c0,5.045,4.089,9.135,9.135,9.135H165.825z M93.152,245.1h63.537v82.129H93.152V245.1z"/>
<path d="M427.978,345.499c5.046,0,9.135-4.09,9.135-9.135V197.539c0-5.045-4.089-9.135-9.135-9.135h-81.807
	c-5.046,0-9.135,4.09-9.135,9.135v138.825c0,5.045,4.089,9.135,9.135,9.135h81.807V345.499z M355.307,206.675h63.536v120.555
	h-63.536V206.675z"/>
<path d="M296.901,188.368c5.046,0,9.135-4.09,9.135-9.135v-35.904c0-5.045-4.089-9.135-9.135-9.135h-81.807
	c-5.046,0-9.135,4.09-9.135,9.135v193.035c0,5.045,4.089,9.135,9.135,9.135h81.807c5.046,0,9.135-4.09,9.135-9.135V207.247
	c0-5.045-4.089-9.135-9.135-9.135c-5.046,0-9.135,4.09-9.135,9.135v119.982h-63.536V152.464h63.536v26.769
	C287.766,184.277,291.855,188.368,296.901,188.368z"/>
</svg>