<?xml version="1.0" encoding="iso-8859-1"?>
<!-- Uploaded to: SVG Repo, www.svgrepo.com, Generator: SVG Repo Mixer Tools -->
<svg height="800px" width="800px" version="1.1" id="Layer_1" xmlns="http://www.w3.org/2000/svg" xmlns:xlink="http://www.w3.org/1999/xlink" 
	 viewBox="0 0 511.999 511.999" xml:space="preserve">
<path style="fill:#A0DBFD;" d="M364.002,430.98c-37.121,28.456-83.554,45.374-133.931,45.374
	c-59.772,0-113.987-23.817-153.663-62.456C35.332,373.88,9.832,317.97,9.832,256.102S35.332,138.324,76.409,98.319
	c39.675-38.651,93.891-62.468,153.663-62.468c113.045,0,206.206,85.179,218.803,194.857"/>
<path style="fill:#87CEE9;" d="M230.071,476.353c-59.772,0-113.987-23.817-153.663-62.456C35.332,373.88,9.832,317.97,9.832,256.102
	S35.332,138.324,76.409,98.319c39.675-38.651,93.891-62.468,153.663-62.468c-43.596,0-81.976,39.204-104.392,98.659
	c-13.139,34.848-20.791,76.643-20.791,121.593s7.653,86.744,20.803,121.593C148.095,437.149,186.476,476.353,230.071,476.353z"/>
<path style="fill:#C1E9FD;" d="M228.635,476.353c59.772,0,113.987-23.817,153.663-62.456
	c41.076-40.017,66.577-95.927,66.577-157.795s-25.501-117.778-66.577-157.783C342.622,59.667,288.407,35.85,228.635,35.85
	c43.596,0,81.976,39.204,104.392,98.659c13.139,34.848,20.791,76.643,20.791,121.593s-7.653,86.744-20.803,121.593
	C310.611,437.149,272.231,476.353,228.635,476.353z"/>
<path style="fill:#FED159;" d="M504.173,325.858c0,60.467-49.023,109.49-109.49,109.49c-9.666,0-19.037-1.248-27.961-3.614
	c-46.916-12.35-81.517-55.075-81.517-105.876c0-60.467,49.012-109.478,109.478-109.478c12.491,0,24.5,2.096,35.684,5.957
	C473.316,237.124,504.173,277.882,504.173,325.858z"/>
<path style="fill:#FFE4A9;" d="M504.173,325.858c0,60.467-49.023,109.49-109.49,109.49c-9.666,0-19.037-1.248-27.961-3.614
	l63.645-209.397C473.316,237.124,504.173,277.882,504.173,325.858z"/>
<path d="M507.3,292.648c-1.362-4.683-6.263-7.374-10.945-6.011c-4.682,1.362-7.374,6.263-6.01,10.945
	c2.651,9.112,3.996,18.593,3.996,28.18c0,55.501-45.155,100.654-100.655,100.654s-100.654-45.153-100.654-100.654
	s45.153-100.654,100.654-100.654c33.49,0,64.694,16.592,83.469,44.383c2.729,4.041,8.22,5.104,12.259,2.373
	c4.042-2.73,5.104-8.219,2.375-12.259c-9.503-14.068-21.723-25.684-35.694-34.362C440.893,111.871,344.068,26.918,229.07,26.918
	c-60.056,0-116.816,23.074-159.824,64.972C24.593,135.38,0,193.662,0,255.999c0,62.333,24.592,120.618,69.246,164.121
	c43.013,41.89,99.774,64.961,159.824,64.961c38.463,0,76.515-9.721,110.045-28.113c4.275-2.345,5.839-7.713,3.495-11.989
	c-2.346-4.275-7.711-5.841-11.99-3.495c-11.863,6.507-24.344,11.826-37.224,15.926c10.756-9.964,20.583-22.356,29.355-37.017
	c19.779,14.862,44.345,23.68,70.933,23.68c65.24,0,118.315-53.076,118.315-118.314C512,314.505,510.419,303.364,507.3,292.648z
	 M436.612,215.502c-13.492-5.252-28.015-8.055-42.928-8.055c-65.238,0-118.314,53.076-118.314,118.314
	c0,7.467,0.703,14.772,2.032,21.859c-12.961-2.785-26.174-4.442-39.5-4.949v-77.841h32.896c4.878,0,8.83-3.953,8.83-8.83
	s-3.952-8.83-8.83-8.83h-32.896v-77.853c31.814-1.203,62.544-8.895,90.613-22.437c4.894,14.541,8.8,30.029,11.607,46.206
	c0.835,4.805,5.394,8.025,10.21,7.191c4.805-0.834,8.023-5.404,7.19-10.208c-3.136-18.085-7.571-35.402-13.196-51.59
	c13.56-7.915,26.365-17.283,38.226-28.006C409.568,138.929,428.79,175.009,436.612,215.502z M237.903,45.222
	c33.299,4.674,64.088,35.578,84.422,85.036c-26.101,12.844-54.745,20.172-84.422,21.388V45.222z M220.243,45.222v106.425
	c-29.678-1.216-58.324-8.544-84.426-21.389C156.157,80.799,186.951,49.892,220.243,45.222z M220.243,169.316v77.853h-85.418
	c-4.878,0-8.83,3.953-8.83,8.83s3.952,8.83,8.83,8.83h85.418v77.858c-31.425,1.216-62.39,8.912-90.586,22.491
	c-11.09-32.934-16.942-70.441-16.942-109.18c0-38.706,5.841-76.191,16.912-109.12C157.699,160.422,188.428,168.113,220.243,169.316z
	 M220.243,360.365v106.414c-33.283-4.669-64.062-35.555-84.396-84.984C162.052,368.918,190.921,361.594,220.243,360.365z
	 M369.849,98.154c-9.978,8.92-20.672,16.798-31.946,23.587c-11.878-28.277-27.162-51.084-44.619-67.227
	C321.864,63.6,347.896,78.591,369.849,98.154z M120.24,121.739c-11.247-6.773-21.919-14.629-31.877-23.524
	c22.42-20.032,48.456-34.823,76.544-43.739C147.434,70.62,132.132,93.44,120.24,121.739z M17.854,264.829h53.402
	c4.878,0,8.83-3.953,8.83-8.83s-3.952-8.83-8.83-8.83H17.854c2.087-51.393,22.372-99.338,57.812-136.632
	c11.84,10.695,24.62,20.04,38.151,27.939c-12.289,35.399-18.762,75.847-18.762,117.523c0,41.703,6.481,82.167,18.784,117.563
	c-13.65,7.96-26.438,17.312-38.177,27.906C40.225,364.166,19.941,316.219,17.854,264.829z M88.375,413.806
	c9.88-8.817,20.556-16.679,31.893-23.499c11.885,28.278,27.176,51.082,44.64,67.219C136.826,448.612,110.793,433.828,88.375,413.806
	z M237.903,466.783V360.359c15.223,0.629,30.276,2.889,44.92,6.73c5.851,15.645,14.925,29.729,26.409,41.444
	C289.729,442.295,264.323,462.986,237.903,466.783z"/>
<path d="M366.301,290.099h64.07c4.878,0,8.83-3.953,8.83-8.83c0-4.876-3.952-8.83-8.83-8.83h-27.856v-16.594
	c0-4.876-3.952-8.83-8.83-8.83c-4.878,0-8.83,3.953-8.83,8.83v16.594h-18.554c-9.998,0-18.131,8.133-18.131,18.131v25.89
	c0,9.998,8.133,18.131,18.131,18.131h54.77c0.26,0,0.471,0.211,0.471,0.471v25.89c0,0.26-0.212,0.471-0.471,0.471H357
	c-4.878,0-8.83,3.953-8.83,8.83c0,4.876,3.952,8.83,8.83,8.83h27.855v16.594c0,4.876,3.952,8.83,8.83,8.83
	c4.878,0,8.83-3.953,8.83-8.83v-16.594h18.556c9.998,0,18.131-8.133,18.131-18.131v-25.89c0-9.997-8.133-18.131-18.131-18.131
	h-54.77c-0.26,0-0.471-0.211-0.471-0.471v-25.89C365.828,290.31,366.04,290.099,366.301,290.099z"/>
</svg>